solid OpenSCAD_Model
  facet normal 0 0 1
    outer loop
      vertex 25.9611 22.489 29
      vertex 26.6307 16.8276 29
      vertex 28.5834 15.9987 29
    endloop
  endfacet
  facet normal 0 0 1
    outer loop
      vertex 25.9611 22.489 29
      vertex 25.1323 20.5363 29
      vertex 26.6307 16.8276 29
    endloop
  endfacet
  facet normal 0 0 1
    outer loop
      vertex 14.8349 17.9937 29
      vertex 25.1323 20.5363 29
      vertex 25.9611 22.489 29
    endloop
  endfacet
  facet normal 0 0 1
    outer loop
      vertex 25.1323 20.5363 29
      vertex 14.8349 17.9937 29
      vertex 15.3969 16.6029 29
    endloop
  endfacet
  facet normal 0 0 1
    outer loop
      vertex 26.6307 16.8276 29
      vertex 21 12.9348 29
      vertex 28.5834 15.9987 29
    endloop
  endfacet
  facet normal 0 0 1
    outer loop
      vertex 3.45111 7.4624 29
      vertex 21 12.9348 29
      vertex 26.6307 16.8276 29
    endloop
  endfacet
  facet normal -0 0 1
    outer loop
      vertex 3.45111 7.4624 29
      vertex 21 0 29
      vertex 21 12.9348 29
    endloop
  endfacet
  facet normal -0 0 1
    outer loop
      vertex 0 8.22513 29
      vertex 3.45111 7.4624 29
      vertex 2.7019 9.31677 29
    endloop
  endfacet
  facet normal 0 0 1
    outer loop
      vertex 0 0 29
      vertex 3.45111 7.4624 29
      vertex 0 8.22513 29
    endloop
  endfacet
  facet normal 0 0 1
    outer loop
      vertex 3.45111 7.4624 29
      vertex 0 0 29
      vertex 21 0 29
    endloop
  endfacet
  facet normal -0 0 1
    outer loop
      vertex 4.95017 14 29
      vertex 7.0522 13.2315 29
      vertex 6.49029 14.6222 29
    endloop
  endfacet
  facet normal 0 0 1
    outer loop
      vertex 4.95017 14 29
      vertex 1.95269 11.1711 29
      vertex 7.0522 13.2315 29
    endloop
  endfacet
  facet normal 0 -0 1
    outer loop
      vertex 1.95269 11.1711 29
      vertex 4.95017 14 29
      vertex 0 14 29
    endloop
  endfacet
  facet normal 0 0 1
    outer loop
      vertex 0 9.30366 29
      vertex 1.95269 11.1711 29
      vertex 0 14 29
    endloop
  endfacet
  facet normal 0 0 1
    outer loop
      vertex 1.95269 11.1711 29
      vertex 0 9.30366 29
      vertex 2.32729 10.2439 29
    endloop
  endfacet
  facet normal 0 0 -1
    outer loop
      vertex 21 0 0
      vertex 4.95017 14 0
      vertex 21 12.9348 0
    endloop
  endfacet
  facet normal 0 0 -1
    outer loop
      vertex 0 0 0
      vertex 4.95017 14 0
      vertex 21 0 0
    endloop
  endfacet
  facet normal -0 0 -1
    outer loop
      vertex 4.95017 14 0
      vertex 0 0 0
      vertex 0 14 0
    endloop
  endfacet
  facet normal 0 0 -1
    outer loop
      vertex 21 12.9348 0
      vertex 25.9611 22.489 0
      vertex 28.5834 15.9987 0
    endloop
  endfacet
  facet normal 0 0 -1
    outer loop
      vertex 25.9611 22.489 0
      vertex 21 12.9348 0
      vertex 4.95017 14 0
    endloop
  endfacet
  facet normal -1 0 0
    outer loop
      vertex 0 14 0
      vertex 0 9.30366 5.5
      vertex 0 14 29
    endloop
  endfacet
  facet normal -1 0 0
    outer loop
      vertex 0 14 0
      vertex 0 8.22513 5.5
      vertex 0 9.30366 5.5
    endloop
  endfacet
  facet normal -1 0 0
    outer loop
      vertex 0 0 0
      vertex 0 8.22513 5.5
      vertex 0 14 0
    endloop
  endfacet
  facet normal -1 0 0
    outer loop
      vertex 0 0 29
      vertex 0 8.22513 5.5
      vertex 0 0 0
    endloop
  endfacet
  facet normal -1 0 0
    outer loop
      vertex 0 8.22513 5.5
      vertex 0 0 29
      vertex 0 8.22513 29
    endloop
  endfacet
  facet normal -1 -0 0
    outer loop
      vertex 0 14 29
      vertex 0 9.30366 5.5
      vertex 0 9.30366 29
    endloop
  endfacet
  facet normal 0 -1 0
    outer loop
      vertex 14.359 0 16.6568
      vertex 21 0 29
      vertex 0 0 29
    endloop
  endfacet
  facet normal 0 -1 0
    outer loop
      vertex 21 0 29
      vertex 14.359 0 16.6568
      vertex 14.8376 0 16.7441
    endloop
  endfacet
  facet normal 0 -1 0
    outer loop
      vertex 0 0 29
      vertex 13.9104 0 16.4685
      vertex 14.359 0 16.6568
    endloop
  endfacet
  facet normal 0 -1 0
    outer loop
      vertex 0 0 29
      vertex 13.5127 0 16.1883
      vertex 13.9104 0 16.4685
    endloop
  endfacet
  facet normal 0 -1 0
    outer loop
      vertex 0 0 29
      vertex 13.1845 0 15.8291
      vertex 13.5127 0 16.1883
    endloop
  endfacet
  facet normal 0 -1 0
    outer loop
      vertex 0 0 29
      vertex 12.9412 0 15.4077
      vertex 13.1845 0 15.8291
    endloop
  endfacet
  facet normal 0 -1 0
    outer loop
      vertex 0 0 29
      vertex 12.7942 0 14.9439
      vertex 12.9412 0 15.4077
    endloop
  endfacet
  facet normal 0 -1 0
    outer loop
      vertex 0 0 29
      vertex 12.7504 0 14.4594
      vertex 12.7942 0 14.9439
    endloop
  endfacet
  facet normal 0 -1 0
    outer loop
      vertex 0 0 0
      vertex 12.7504 0 14.4594
      vertex 0 0 29
    endloop
  endfacet
  facet normal 0 -1 -0
    outer loop
      vertex 12.7504 0 14.4594
      vertex 0 0 0
      vertex 12.8117 0 13.9767
    endloop
  endfacet
  facet normal 0 -1 -0
    outer loop
      vertex 12.8117 0 13.9767
      vertex 0 0 0
      vertex 12.9753 0 13.5185
    endloop
  endfacet
  facet normal 0 -1 0
    outer loop
      vertex 21 0 0
      vertex 14.4373 0 12.3215
      vertex 0 0 0
    endloop
  endfacet
  facet normal 0 -1 -0
    outer loop
      vertex 13.9821 0 12.4934
      vertex 0 0 0
      vertex 14.4373 0 12.3215
    endloop
  endfacet
  facet normal 0 -1 -0
    outer loop
      vertex 13.5746 0 12.7591
      vertex 0 0 0
      vertex 13.9821 0 12.4934
    endloop
  endfacet
  facet normal 0 -1 -0
    outer loop
      vertex 13.2337 0 13.1062
      vertex 0 0 0
      vertex 13.5746 0 12.7591
    endloop
  endfacet
  facet normal 0 -1 -0
    outer loop
      vertex 12.9753 0 13.5185
      vertex 0 0 0
      vertex 13.2337 0 13.1062
    endloop
  endfacet
  facet normal 0 -1 0
    outer loop
      vertex 15.3239 0 16.7266
      vertex 21 0 29
      vertex 14.8376 0 16.7441
    endloop
  endfacet
  facet normal 0 -1 0
    outer loop
      vertex 15.7949 0 16.6049
      vertex 21 0 29
      vertex 15.3239 0 16.7266
    endloop
  endfacet
  facet normal 0 -1 0
    outer loop
      vertex 16.2288 0 16.3848
      vertex 21 0 29
      vertex 15.7949 0 16.6049
    endloop
  endfacet
  facet normal 0 -1 0
    outer loop
      vertex 16.6053 0 16.0766
      vertex 21 0 29
      vertex 16.2288 0 16.3848
    endloop
  endfacet
  facet normal 0 -1 0
    outer loop
      vertex 16.9067 0 15.6946
      vertex 21 0 29
      vertex 16.6053 0 16.0766
    endloop
  endfacet
  facet normal 0 -1 0
    outer loop
      vertex 17.1189 0 15.2568
      vertex 21 0 29
      vertex 16.9067 0 15.6946
    endloop
  endfacet
  facet normal 0 -1 0
    outer loop
      vertex 17.2321 0 14.7836
      vertex 21 0 29
      vertex 17.1189 0 15.2568
    endloop
  endfacet
  facet normal 0 -1 0
    outer loop
      vertex 17.2408 0 14.2972
      vertex 21 0 29
      vertex 17.2321 0 14.7836
    endloop
  endfacet
  facet normal 0 -1 0
    outer loop
      vertex 21 0 0
      vertex 17.2408 0 14.2972
      vertex 17.1448 0 13.8202
    endloop
  endfacet
  facet normal 0 -1 0
    outer loop
      vertex 14.4373 0 12.3215
      vertex 21 0 0
      vertex 14.9188 0 12.2515
    endloop
  endfacet
  facet normal 0 -1 0
    outer loop
      vertex 14.9188 0 12.2515
      vertex 21 0 0
      vertex 15.404 0 12.2866
    endloop
  endfacet
  facet normal 0 -1 0
    outer loop
      vertex 15.404 0 12.2866
      vertex 21 0 0
      vertex 15.8704 0 12.4252
    endloop
  endfacet
  facet normal 0 -1 0
    outer loop
      vertex 17.2408 0 14.2972
      vertex 21 0 0
      vertex 21 0 29
    endloop
  endfacet
  facet normal 0 -1 0
    outer loop
      vertex 16.9486 0 13.375
      vertex 21 0 0
      vertex 17.1448 0 13.8202
    endloop
  endfacet
  facet normal 0 -1 0
    outer loop
      vertex 16.6612 0 12.9824
      vertex 21 0 0
      vertex 16.9486 0 13.375
    endloop
  endfacet
  facet normal 0 -1 0
    outer loop
      vertex 16.2961 0 12.6608
      vertex 21 0 0
      vertex 16.6612 0 12.9824
    endloop
  endfacet
  facet normal 0 -1 0
    outer loop
      vertex 15.8704 0 12.4252
      vertex 21 0 0
      vertex 16.2961 0 12.6608
    endloop
  endfacet
  facet normal 1 -0 0
    outer loop
      vertex 21 0 29
      vertex 21 12.9348 0
      vertex 21 12.9348 29
    endloop
  endfacet
  facet normal 1 0 0
    outer loop
      vertex 21 12.9348 0
      vertex 21 0 29
      vertex 21 0 0
    endloop
  endfacet
  facet normal 0 1 -0
    outer loop
      vertex 4.95017 14 0
      vertex 0 14 29
      vertex 4.95017 14 29
    endloop
  endfacet
  facet normal 0 1 0
    outer loop
      vertex 0 14 29
      vertex 4.95017 14 0
      vertex 0 14 0
    endloop
  endfacet
  facet normal -0.374608 0.927183 0
    outer loop
      vertex 25.9611 22.489 29
      vertex 14.8349 17.9937 10
      vertex 14.8349 17.9937 29
    endloop
  endfacet
  facet normal -0.374608 0.927183 5.37615e-07
    outer loop
      vertex 4.95017 14 0
      vertex 14.8349 17.9937 10
      vertex 25.9611 22.489 0
    endloop
  endfacet
  facet normal -0.374608 0.927183 0
    outer loop
      vertex 25.9611 22.489 0
      vertex 14.8349 17.9937 10
      vertex 25.9611 22.489 29
    endloop
  endfacet
  facet normal -0.374581 0.927194 0
    outer loop
      vertex 6.49029 14.6222 10
      vertex 4.95017 14 29
      vertex 6.49029 14.6222 29
    endloop
  endfacet
  facet normal -0.374581 0.927194 0
    outer loop
      vertex 6.49029 14.6222 10
      vertex 4.95017 14 0
      vertex 4.95017 14 29
    endloop
  endfacet
  facet normal -0.374612 0.927182 5.53599e-06
    outer loop
      vertex 14.8349 17.9937 10
      vertex 4.95017 14 0
      vertex 6.49029 14.6222 10
    endloop
  endfacet
  facet normal 0.374607 -0.927184 0
    outer loop
      vertex 21 12.9348 0
      vertex 28.5834 15.9987 29
      vertex 21 12.9348 29
    endloop
  endfacet
  facet normal 0.374607 -0.927184 0
    outer loop
      vertex 28.5834 15.9987 29
      vertex 21 12.9348 0
      vertex 28.5834 15.9987 0
    endloop
  endfacet
  facet normal 0.927181 0.374613 0
    outer loop
      vertex 28.5834 15.9987 29
      vertex 25.9611 22.489 0
      vertex 25.9611 22.489 29
    endloop
  endfacet
  facet normal 0.927181 0.374613 0
    outer loop
      vertex 25.9611 22.489 0
      vertex 28.5834 15.9987 29
      vertex 28.5834 15.9987 0
    endloop
  endfacet
  facet normal -0.927185 -0.374604 0
    outer loop
      vertex 26.6307 16.8276 1.5
      vertex 25.1323 20.5363 29
      vertex 25.1323 20.5363 1.5
    endloop
  endfacet
  facet normal -0.927185 -0.374604 0
    outer loop
      vertex 25.1323 20.5363 29
      vertex 26.6307 16.8276 1.5
      vertex 26.6307 16.8276 29
    endloop
  endfacet
  facet normal 0 0 1
    outer loop
      vertex 25.1323 20.5363 1.5
      vertex 3.45111 7.4624 1.5
      vertex 26.6307 16.8276 1.5
    endloop
  endfacet
  facet normal 0 -0 1
    outer loop
      vertex 3.45111 7.4624 1.5
      vertex 25.1323 20.5363 1.5
      vertex 1.95269 11.1711 1.5
    endloop
  endfacet
  facet normal 0.927185 0.374605 0
    outer loop
      vertex 2.7019 9.31677 29
      vertex 3.45111 7.4624 29
      vertex 2.7019 9.31677 5.5
    endloop
  endfacet
  facet normal 0.927188 0.374595 -0
    outer loop
      vertex 2.32729 10.2439 5.5
      vertex 1.95269 11.1711 29
      vertex 2.32729 10.2439 29
    endloop
  endfacet
  facet normal 0.927188 0.374595 0
    outer loop
      vertex 1.95269 11.1711 29
      vertex 2.32729 10.2439 5.5
      vertex 1.95269 11.1711 1.5
    endloop
  endfacet
  facet normal 0.927175 0.374628 8.87393e-06
    outer loop
      vertex 2.7019 9.31677 5.5
      vertex 1.95269 11.1711 1.5
      vertex 2.32729 10.2439 5.5
    endloop
  endfacet
  facet normal 0.927183 0.374608 -1.87304e-06
    outer loop
      vertex 2.7019 9.31677 5.5
      vertex 3.45111 7.4624 1.5
      vertex 1.95269 11.1711 1.5
    endloop
  endfacet
  facet normal 0.927185 0.374605 -0
    outer loop
      vertex 3.45111 7.4624 1.5
      vertex 2.7019 9.31677 5.5
      vertex 3.45111 7.4624 29
    endloop
  endfacet
  facet normal 0.374617 -0.92718 0
    outer loop
      vertex 1.95269 11.1711 29
      vertex 7.0522 13.2315 10
      vertex 7.0522 13.2315 29
    endloop
  endfacet
  facet normal 0.374599 -0.927187 1.21812e-05
    outer loop
      vertex 7.0522 13.2315 10
      vertex 1.95269 11.1711 1.5
      vertex 15.3969 16.6029 10
    endloop
  endfacet
  facet normal 0.374617 -0.92718 0
    outer loop
      vertex 1.95269 11.1711 1.5
      vertex 7.0522 13.2315 10
      vertex 1.95269 11.1711 29
    endloop
  endfacet
  facet normal 0.37461 -0.927182 0
    outer loop
      vertex 15.3969 16.6029 10
      vertex 25.1323 20.5363 29
      vertex 15.3969 16.6029 29
    endloop
  endfacet
  facet normal 0.37461 -0.927182 0
    outer loop
      vertex 15.3969 16.6029 10
      vertex 25.1323 20.5363 1.5
      vertex 25.1323 20.5363 29
    endloop
  endfacet
  facet normal 0.374608 -0.927183 -3.34067e-06
    outer loop
      vertex 25.1323 20.5363 1.5
      vertex 15.3969 16.6029 10
      vertex 1.95269 11.1711 1.5
    endloop
  endfacet
  facet normal -0.374608 0.927183 2.40882e-06
    outer loop
      vertex 26.6307 16.8276 29
      vertex 15 12.1285 18.7
      vertex 3.45111 7.4624 29
    endloop
  endfacet
  facet normal -0.374598 0.927187 -1.08284e-05
    outer loop
      vertex 26.6307 16.8276 29
      vertex 18.6373 13.598 16.6
      vertex 15 12.1285 18.7
    endloop
  endfacet
  facet normal -0.374612 0.927182 0
    outer loop
      vertex 26.6307 16.8276 1.5
      vertex 18.6373 13.598 16.6
      vertex 26.6307 16.8276 29
    endloop
  endfacet
  facet normal -0.374598 0.927187 1.18752e-05
    outer loop
      vertex 18.6373 13.598 12.4
      vertex 26.6307 16.8276 1.5
      vertex 15 12.1285 10.3
    endloop
  endfacet
  facet normal -0.374612 0.927182 0
    outer loop
      vertex 18.6373 13.598 16.6
      vertex 26.6307 16.8276 1.5
      vertex 18.6373 13.598 12.4
    endloop
  endfacet
  facet normal -0.374613 0.927181 -3.65384e-06
    outer loop
      vertex 11.3627 10.6589 16.6
      vertex 3.45111 7.4624 29
      vertex 15 12.1285 18.7
    endloop
  endfacet
  facet normal -0.374608 0.927183 0
    outer loop
      vertex 3.45111 7.4624 1.5
      vertex 11.3627 10.6589 16.6
      vertex 11.3627 10.6589 12.4
    endloop
  endfacet
  facet normal -0.374608 0.927183 -2.81941e-06
    outer loop
      vertex 3.45111 7.4624 1.5
      vertex 15 12.1285 10.3
      vertex 26.6307 16.8276 1.5
    endloop
  endfacet
  facet normal -0.374608 0.927183 0
    outer loop
      vertex 11.3627 10.6589 16.6
      vertex 3.45111 7.4624 1.5
      vertex 3.45111 7.4624 29
    endloop
  endfacet
  facet normal -0.374612 0.927182 4.00817e-06
    outer loop
      vertex 15 12.1285 10.3
      vertex 3.45111 7.4624 1.5
      vertex 11.3627 10.6589 12.4
    endloop
  endfacet
  facet normal -0.927165 -0.374653 0
    outer loop
      vertex 15.3969 16.6029 10
      vertex 14.8349 17.9937 29
      vertex 14.8349 17.9937 10
    endloop
  endfacet
  facet normal -0.927165 -0.374653 0
    outer loop
      vertex 14.8349 17.9937 29
      vertex 15.3969 16.6029 10
      vertex 15.3969 16.6029 29
    endloop
  endfacet
  facet normal 0 0 1
    outer loop
      vertex 14.8349 17.9937 10
      vertex 7.0522 13.2315 10
      vertex 15.3969 16.6029 10
    endloop
  endfacet
  facet normal 0 -0 1
    outer loop
      vertex 7.0522 13.2315 10
      vertex 14.8349 17.9937 10
      vertex 6.49029 14.6222 10
    endloop
  endfacet
  facet normal 0.927177 0.374624 0
    outer loop
      vertex 7.0522 13.2315 29
      vertex 6.49029 14.6222 10
      vertex 6.49029 14.6222 29
    endloop
  endfacet
  facet normal 0.927177 0.374624 0
    outer loop
      vertex 6.49029 14.6222 10
      vertex 7.0522 13.2315 29
      vertex 7.0522 13.2315 10
    endloop
  endfacet
  facet normal 0 0 1
    outer loop
      vertex 0 9.30366 5.5
      vertex 2.7019 9.31677 5.5
      vertex 2.32729 10.2439 5.5
    endloop
  endfacet
  facet normal 0 0 1
    outer loop
      vertex 2.7019 9.31677 5.5
      vertex 0 9.30366 5.5
      vertex 0 8.22513 5.5
    endloop
  endfacet
  facet normal 0.374591 -0.92719 0
    outer loop
      vertex 0 9.30366 5.5
      vertex 2.32729 10.2439 29
      vertex 0 9.30366 29
    endloop
  endfacet
  facet normal 0.374591 -0.92719 0
    outer loop
      vertex 2.32729 10.2439 29
      vertex 0 9.30366 5.5
      vertex 2.32729 10.2439 5.5
    endloop
  endfacet
  facet normal -0.374607 0.927184 0
    outer loop
      vertex 2.7019 9.31677 5.5
      vertex 0 8.22513 29
      vertex 2.7019 9.31677 29
    endloop
  endfacet
  facet normal -0.374607 0.927184 0
    outer loop
      vertex 0 8.22513 29
      vertex 2.7019 9.31677 5.5
      vertex 0 8.22513 5.5
    endloop
  endfacet
  facet normal -0.25017 0 -0.968202
    outer loop
      vertex 15.3239 0 16.7266
      vertex 15.7949 5 16.6049
      vertex 15.7949 0 16.6049
    endloop
  endfacet
  facet normal -0.25017 0 -0.968202
    outer loop
      vertex 15.7949 5 16.6049
      vertex 15.3239 0 16.7266
      vertex 15.3239 5 16.7266
    endloop
  endfacet
  facet normal -0.660989 0 0.750395
    outer loop
      vertex 16.2961 5 12.6608
      vertex 16.6612 0 12.9824
      vertex 16.6612 5 12.9824
    endloop
  endfacet
  facet normal -0.660989 0 0.750395
    outer loop
      vertex 16.6612 0 12.9824
      vertex 16.2961 5 12.6608
      vertex 16.2961 0 12.6608
    endloop
  endfacet
  facet normal -0.806901 0 0.590686
    outer loop
      vertex 16.6612 0 12.9824
      vertex 16.9486 5 13.375
      vertex 16.6612 5 12.9824
    endloop
  endfacet
  facet normal -0.806901 0 0.590686
    outer loop
      vertex 16.9486 5 13.375
      vertex 16.6612 0 12.9824
      vertex 16.9486 0 13.375
    endloop
  endfacet
  facet normal -0.484229 0 0.874941
    outer loop
      vertex 15.8704 5 12.4252
      vertex 16.2961 0 12.6608
      vertex 16.2961 5 12.6608
    endloop
  endfacet
  facet normal -0.484229 0 0.874941
    outer loop
      vertex 16.2961 0 12.6608
      vertex 15.8704 5 12.4252
      vertex 15.8704 0 12.4252
    endloop
  endfacet
  facet normal 0.54618 0 0.837668
    outer loop
      vertex 13.5746 5 12.7591
      vertex 13.9821 0 12.4934
      vertex 13.9821 5 12.4934
    endloop
  endfacet
  facet normal 0.54618 0 0.837668
    outer loop
      vertex 13.9821 0 12.4934
      vertex 13.5746 5 12.7591
      vertex 13.5746 0 12.7591
    endloop
  endfacet
  facet normal -0.633428 0 -0.773802
    outer loop
      vertex 16.2288 0 16.3848
      vertex 16.6053 5 16.0766
      vertex 16.6053 0 16.0766
    endloop
  endfacet
  facet normal -0.633428 0 -0.773802
    outer loop
      vertex 16.6053 5 16.0766
      vertex 16.2288 0 16.3848
      vertex 16.2288 5 16.3848
    endloop
  endfacet
  facet normal -0.785062 0 -0.619418
    outer loop
      vertex 16.9067 0 15.6946
      vertex 16.6053 5 16.0766
      vertex 16.9067 5 15.6946
    endloop
  endfacet
  facet normal -0.785062 -0 -0.619418
    outer loop
      vertex 16.6053 5 16.0766
      vertex 16.9067 0 15.6946
      vertex 16.6053 0 16.0766
    endloop
  endfacet
  facet normal -0.0359627 0 -0.999353
    outer loop
      vertex 14.8376 0 16.7441
      vertex 15.3239 5 16.7266
      vertex 15.3239 0 16.7266
    endloop
  endfacet
  facet normal -0.0359627 0 -0.999353
    outer loop
      vertex 15.3239 5 16.7266
      vertex 14.8376 0 16.7441
      vertex 14.8376 5 16.7441
    endloop
  endfacet
  facet normal -0.915078 0 0.403276
    outer loop
      vertex 16.9486 0 13.375
      vertex 17.1448 5 13.8202
      vertex 16.9486 5 13.375
    endloop
  endfacet
  facet normal -0.915078 0 0.403276
    outer loop
      vertex 17.1448 5 13.8202
      vertex 16.9486 0 13.375
      vertex 17.1448 0 13.8202
    endloop
  endfacet
  facet normal -0.99984 0 -0.0178837
    outer loop
      vertex 17.2408 0 14.2972
      vertex 17.2321 5 14.7836
      vertex 17.2408 5 14.2972
    endloop
  endfacet
  facet normal -0.99984 -0 -0.0178837
    outer loop
      vertex 17.2321 5 14.7836
      vertex 17.2408 0 14.2972
      vertex 17.2321 0 14.7836
    endloop
  endfacet
  facet normal -0.980343 0 0.197302
    outer loop
      vertex 17.1448 0 13.8202
      vertex 17.2408 5 14.2972
      vertex 17.1448 5 13.8202
    endloop
  endfacet
  facet normal -0.980343 0 0.197302
    outer loop
      vertex 17.2408 5 14.2972
      vertex 17.1448 0 13.8202
      vertex 17.2408 0 14.2972
    endloop
  endfacet
  facet normal 0.387037 0 -0.922064
    outer loop
      vertex 13.9104 0 16.4685
      vertex 14.359 5 16.6568
      vertex 14.359 0 16.6568
    endloop
  endfacet
  facet normal 0.387037 0 -0.922064
    outer loop
      vertex 14.359 5 16.6568
      vertex 13.9104 0 16.4685
      vertex 13.9104 5 16.4685
    endloop
  endfacet
  facet normal 0.143867 0 0.989597
    outer loop
      vertex 14.4373 5 12.3215
      vertex 14.9188 0 12.2515
      vertex 14.9188 5 12.2515
    endloop
  endfacet
  facet normal 0.143867 0 0.989597
    outer loop
      vertex 14.9188 0 12.2515
      vertex 14.4373 5 12.3215
      vertex 14.4373 0 12.3215
    endloop
  endfacet
  facet normal 0.992033 -0 0.125982
    outer loop
      vertex 12.7504 0 14.4594
      vertex 12.8117 5 13.9767
      vertex 12.7504 5 14.4594
    endloop
  endfacet
  facet normal 0.992033 0 0.125982
    outer loop
      vertex 12.8117 5 13.9767
      vertex 12.7504 0 14.4594
      vertex 12.8117 0 13.9767
    endloop
  endfacet
  facet normal 0.71345 -0 0.700706
    outer loop
      vertex 13.2337 0 13.1062
      vertex 13.5746 5 12.7591
      vertex 13.2337 5 13.1062
    endloop
  endfacet
  facet normal 0.71345 0 0.700706
    outer loop
      vertex 13.5746 5 12.7591
      vertex 13.2337 0 13.1062
      vertex 13.5746 0 12.7591
    endloop
  endfacet
  facet normal -0.899868 0 -0.436163
    outer loop
      vertex 17.1189 0 15.2568
      vertex 16.9067 5 15.6946
      vertex 17.1189 5 15.2568
    endloop
  endfacet
  facet normal -0.899868 -0 -0.436163
    outer loop
      vertex 16.9067 5 15.6946
      vertex 17.1189 0 15.2568
      vertex 16.9067 0 15.6946
    endloop
  endfacet
  facet normal 0.953265 0 -0.302135
    outer loop
      vertex 12.9412 0 15.4077
      vertex 12.7942 5 14.9439
      vertex 12.9412 5 15.4077
    endloop
  endfacet
  facet normal 0.953265 0 -0.302135
    outer loop
      vertex 12.7942 5 14.9439
      vertex 12.9412 0 15.4077
      vertex 12.7942 0 14.9439
    endloop
  endfacet
  facet normal 0.995939 0 -0.0900353
    outer loop
      vertex 12.7942 0 14.9439
      vertex 12.7504 5 14.4594
      vertex 12.7942 5 14.9439
    endloop
  endfacet
  facet normal 0.995939 0 -0.0900353
    outer loop
      vertex 12.7504 5 14.4594
      vertex 12.7942 0 14.9439
      vertex 12.7504 0 14.4594
    endloop
  endfacet
  facet normal -0.284858 0 0.95857
    outer loop
      vertex 15.404 5 12.2866
      vertex 15.8704 0 12.4252
      vertex 15.8704 5 12.4252
    endloop
  endfacet
  facet normal -0.284858 0 0.95857
    outer loop
      vertex 15.8704 0 12.4252
      vertex 15.404 5 12.2866
      vertex 15.404 0 12.2866
    endloop
  endfacet
  facet normal 0.353285 0 0.935516
    outer loop
      vertex 13.9821 5 12.4934
      vertex 14.4373 0 12.3215
      vertex 14.4373 5 12.3215
    endloop
  endfacet
  facet normal 0.353285 0 0.935516
    outer loop
      vertex 14.4373 0 12.3215
      vertex 13.9821 5 12.4934
      vertex 13.9821 0 12.4934
    endloop
  endfacet
  facet normal -0.0721528 0 0.997394
    outer loop
      vertex 14.9188 5 12.2515
      vertex 15.404 0 12.2866
      vertex 15.404 5 12.2866
    endloop
  endfacet
  facet normal -0.0721528 0 0.997394
    outer loop
      vertex 15.404 0 12.2866
      vertex 14.9188 5 12.2515
      vertex 14.9188 0 12.2515
    endloop
  endfacet
  facet normal 0.575957 0 -0.81748
    outer loop
      vertex 13.5127 0 16.1883
      vertex 13.9104 5 16.4685
      vertex 13.9104 0 16.4685
    endloop
  endfacet
  facet normal 0.575957 0 -0.81748
    outer loop
      vertex 13.9104 5 16.4685
      vertex 13.5127 0 16.1883
      vertex 13.5127 5 16.1883
    endloop
  endfacet
  facet normal -0.972559 0 -0.232658
    outer loop
      vertex 17.2321 0 14.7836
      vertex 17.1189 5 15.2568
      vertex 17.2321 5 14.7836
    endloop
  endfacet
  facet normal -0.972559 -0 -0.232658
    outer loop
      vertex 17.1189 5 15.2568
      vertex 17.2321 0 14.7836
      vertex 17.1189 0 15.2568
    endloop
  endfacet
  facet normal 0.84734 -0 0.531052
    outer loop
      vertex 12.9753 0 13.5185
      vertex 13.2337 5 13.1062
      vertex 12.9753 5 13.5185
    endloop
  endfacet
  facet normal 0.84734 0 0.531052
    outer loop
      vertex 13.2337 5 13.1062
      vertex 12.9753 0 13.5185
      vertex 13.2337 0 13.1062
    endloop
  endfacet
  facet normal 0.738245 0 -0.674532
    outer loop
      vertex 13.5127 0 16.1883
      vertex 13.1845 5 15.8291
      vertex 13.5127 5 16.1883
    endloop
  endfacet
  facet normal 0.738245 0 -0.674532
    outer loop
      vertex 13.1845 5 15.8291
      vertex 13.5127 0 16.1883
      vertex 13.1845 0 15.8291
    endloop
  endfacet
  facet normal 0.94177 -0 0.336258
    outer loop
      vertex 12.8117 0 13.9767
      vertex 12.9753 5 13.5185
      vertex 12.8117 5 13.9767
    endloop
  endfacet
  facet normal 0.94177 0 0.336258
    outer loop
      vertex 12.9753 5 13.5185
      vertex 12.8117 0 13.9767
      vertex 12.9753 0 13.5185
    endloop
  endfacet
  facet normal 0.866021 0 -0.500007
    outer loop
      vertex 13.1845 0 15.8291
      vertex 12.9412 5 15.4077
      vertex 13.1845 5 15.8291
    endloop
  endfacet
  facet normal 0.866021 0 -0.500007
    outer loop
      vertex 12.9412 5 15.4077
      vertex 13.1845 0 15.8291
      vertex 12.9412 0 15.4077
    endloop
  endfacet
  facet normal 0.179446 0 -0.983768
    outer loop
      vertex 14.359 0 16.6568
      vertex 14.8376 5 16.7441
      vertex 14.8376 0 16.7441
    endloop
  endfacet
  facet normal 0.179446 0 -0.983768
    outer loop
      vertex 14.8376 5 16.7441
      vertex 14.359 0 16.6568
      vertex 14.359 5 16.6568
    endloop
  endfacet
  facet normal -0.452386 0 -0.891822
    outer loop
      vertex 15.7949 0 16.6049
      vertex 16.2288 5 16.3848
      vertex 16.2288 0 16.3848
    endloop
  endfacet
  facet normal -0.452386 0 -0.891822
    outer loop
      vertex 16.2288 5 16.3848
      vertex 15.7949 0 16.6049
      vertex 15.7949 5 16.6049
    endloop
  endfacet
  facet normal -0.500001 -0 -0.866025
    outer loop
      vertex 15 12.1285 18.7
      vertex 18.6373 5 16.6
      vertex 15 5 18.7
    endloop
  endfacet
  facet normal -0.500001 0 -0.866025
    outer loop
      vertex 18.6373 5 16.6
      vertex 15 12.1285 18.7
      vertex 18.6373 13.598 16.6
    endloop
  endfacet
  facet normal -1 0 0
    outer loop
      vertex 18.6373 5 12.4
      vertex 18.6373 13.598 16.6
      vertex 18.6373 13.598 12.4
    endloop
  endfacet
  facet normal -1 -0 0
    outer loop
      vertex 18.6373 13.598 16.6
      vertex 18.6373 5 12.4
      vertex 18.6373 5 16.6
    endloop
  endfacet
  facet normal 0.500001 0 0.866025
    outer loop
      vertex 11.3627 10.6589 12.4
      vertex 15 5 10.3
      vertex 15 12.1285 10.3
    endloop
  endfacet
  facet normal 0.500001 0 0.866025
    outer loop
      vertex 15 5 10.3
      vertex 11.3627 10.6589 12.4
      vertex 11.3627 5 12.4
    endloop
  endfacet
  facet normal -0.500001 0 0.866025
    outer loop
      vertex 15 12.1285 10.3
      vertex 18.6373 5 12.4
      vertex 18.6373 13.598 12.4
    endloop
  endfacet
  facet normal -0.500001 0 0.866025
    outer loop
      vertex 18.6373 5 12.4
      vertex 15 12.1285 10.3
      vertex 15 5 10.3
    endloop
  endfacet
  facet normal 1 -0 0
    outer loop
      vertex 11.3627 5 16.6
      vertex 11.3627 10.6589 12.4
      vertex 11.3627 10.6589 16.6
    endloop
  endfacet
  facet normal 1 0 0
    outer loop
      vertex 11.3627 10.6589 12.4
      vertex 11.3627 5 16.6
      vertex 11.3627 5 12.4
    endloop
  endfacet
  facet normal 0.500001 0 -0.866025
    outer loop
      vertex 11.3627 10.6589 16.6
      vertex 15 5 18.7
      vertex 11.3627 5 16.6
    endloop
  endfacet
  facet normal 0.500001 0 -0.866025
    outer loop
      vertex 15 5 18.7
      vertex 11.3627 10.6589 16.6
      vertex 15 12.1285 18.7
    endloop
  endfacet
  facet normal 0 1 0
    outer loop
      vertex 15 5 18.7
      vertex 15.3239 5 16.7266
      vertex 14.8376 5 16.7441
    endloop
  endfacet
  facet normal 0 1 0
    outer loop
      vertex 15 5 18.7
      vertex 15.7949 5 16.6049
      vertex 15.3239 5 16.7266
    endloop
  endfacet
  facet normal 0 1 -0
    outer loop
      vertex 16.2288 5 16.3848
      vertex 15 5 18.7
      vertex 18.6373 5 16.6
    endloop
  endfacet
  facet normal 0 1 0
    outer loop
      vertex 15 5 18.7
      vertex 16.2288 5 16.3848
      vertex 15.7949 5 16.6049
    endloop
  endfacet
  facet normal 0 1 0
    outer loop
      vertex 18.6373 5 16.6
      vertex 16.6053 5 16.0766
      vertex 16.2288 5 16.3848
    endloop
  endfacet
  facet normal 0 1 0
    outer loop
      vertex 18.6373 5 16.6
      vertex 16.9067 5 15.6946
      vertex 16.6053 5 16.0766
    endloop
  endfacet
  facet normal 0 1 0
    outer loop
      vertex 18.6373 5 16.6
      vertex 17.1189 5 15.2568
      vertex 16.9067 5 15.6946
    endloop
  endfacet
  facet normal 0 1 0
    outer loop
      vertex 18.6373 5 16.6
      vertex 17.2321 5 14.7836
      vertex 17.1189 5 15.2568
    endloop
  endfacet
  facet normal 0 1 0
    outer loop
      vertex 18.6373 5 16.6
      vertex 17.2408 5 14.2972
      vertex 17.2321 5 14.7836
    endloop
  endfacet
  facet normal 0 1 -0
    outer loop
      vertex 18.6373 5 12.4
      vertex 17.2408 5 14.2972
      vertex 18.6373 5 16.6
    endloop
  endfacet
  facet normal 0 1 0
    outer loop
      vertex 17.2408 5 14.2972
      vertex 18.6373 5 12.4
      vertex 17.1448 5 13.8202
    endloop
  endfacet
  facet normal 0 1 0
    outer loop
      vertex 17.1448 5 13.8202
      vertex 18.6373 5 12.4
      vertex 16.9486 5 13.375
    endloop
  endfacet
  facet normal 0 1 0
    outer loop
      vertex 18.6373 5 12.4
      vertex 16.6612 5 12.9824
      vertex 16.9486 5 13.375
    endloop
  endfacet
  facet normal 0 1 0
    outer loop
      vertex 18.6373 5 12.4
      vertex 16.2961 5 12.6608
      vertex 16.6612 5 12.9824
    endloop
  endfacet
  facet normal 0 1 0
    outer loop
      vertex 15 5 10.3
      vertex 16.2961 5 12.6608
      vertex 18.6373 5 12.4
    endloop
  endfacet
  facet normal 0 1 0
    outer loop
      vertex 16.2961 5 12.6608
      vertex 15 5 10.3
      vertex 15.8704 5 12.4252
    endloop
  endfacet
  facet normal 0 1 0
    outer loop
      vertex 15.8704 5 12.4252
      vertex 15 5 10.3
      vertex 15.404 5 12.2866
    endloop
  endfacet
  facet normal 0 1 0
    outer loop
      vertex 15.404 5 12.2866
      vertex 15 5 10.3
      vertex 14.9188 5 12.2515
    endloop
  endfacet
  facet normal 0 1 0
    outer loop
      vertex 14.359 5 16.6568
      vertex 15 5 18.7
      vertex 14.8376 5 16.7441
    endloop
  endfacet
  facet normal 0 1 0
    outer loop
      vertex 13.9104 5 16.4685
      vertex 15 5 18.7
      vertex 14.359 5 16.6568
    endloop
  endfacet
  facet normal 0 1 0
    outer loop
      vertex 15 5 18.7
      vertex 13.9104 5 16.4685
      vertex 11.3627 5 16.6
    endloop
  endfacet
  facet normal 0 1 -0
    outer loop
      vertex 13.5127 5 16.1883
      vertex 11.3627 5 16.6
      vertex 13.9104 5 16.4685
    endloop
  endfacet
  facet normal 0 1 -0
    outer loop
      vertex 13.1845 5 15.8291
      vertex 11.3627 5 16.6
      vertex 13.5127 5 16.1883
    endloop
  endfacet
  facet normal 0 1 -0
    outer loop
      vertex 12.9412 5 15.4077
      vertex 11.3627 5 16.6
      vertex 13.1845 5 15.8291
    endloop
  endfacet
  facet normal 0 1 -0
    outer loop
      vertex 12.7942 5 14.9439
      vertex 11.3627 5 16.6
      vertex 12.9412 5 15.4077
    endloop
  endfacet
  facet normal 0 1 -0
    outer loop
      vertex 12.7504 5 14.4594
      vertex 11.3627 5 16.6
      vertex 12.7942 5 14.9439
    endloop
  endfacet
  facet normal 0 1 0
    outer loop
      vertex 11.3627 5 12.4
      vertex 12.7504 5 14.4594
      vertex 12.8117 5 13.9767
    endloop
  endfacet
  facet normal 0 1 0
    outer loop
      vertex 11.3627 5 12.4
      vertex 12.8117 5 13.9767
      vertex 12.9753 5 13.5185
    endloop
  endfacet
  facet normal 0 1 0
    outer loop
      vertex 12.7504 5 14.4594
      vertex 11.3627 5 12.4
      vertex 11.3627 5 16.6
    endloop
  endfacet
  facet normal 0 1 0
    outer loop
      vertex 13.2337 5 13.1062
      vertex 11.3627 5 12.4
      vertex 12.9753 5 13.5185
    endloop
  endfacet
  facet normal 0 1 0
    outer loop
      vertex 13.5746 5 12.7591
      vertex 11.3627 5 12.4
      vertex 13.2337 5 13.1062
    endloop
  endfacet
  facet normal 0 1 0
    outer loop
      vertex 13.9821 5 12.4934
      vertex 11.3627 5 12.4
      vertex 13.5746 5 12.7591
    endloop
  endfacet
  facet normal 0 1 0
    outer loop
      vertex 15 5 10.3
      vertex 13.9821 5 12.4934
      vertex 14.4373 5 12.3215
    endloop
  endfacet
  facet normal 0 1 0
    outer loop
      vertex 15 5 10.3
      vertex 14.4373 5 12.3215
      vertex 14.9188 5 12.2515
    endloop
  endfacet
  facet normal 0 1 0
    outer loop
      vertex 13.9821 5 12.4934
      vertex 15 5 10.3
      vertex 11.3627 5 12.4
    endloop
  endfacet
endsolid OpenSCAD_Model
